<svg xmlns="http://www.w3.org/2000/svg" xmlns:xlink="http://www.w3.org/1999/xlink" version="1.1" id="Layer_1" x="0px" y="0px" style="enable-background:new 0 0 1920 1080;" xml:space="preserve" viewBox="0 0 1920 1080">
<style type="text/css">
	.st0{fill:#1b4638;}
	.st1{font-family:'Valery-Regular';}
	.st2{font-size:151.9597px;}
</style>
<g>

	<!-- <path class="st0" d="M1919,1v1078H1V1H1919 M1920,0H0v1080h1920V0L1920,0z"/> -->
</g>
<text transform="matrix(1 0 0 1 217.4209 887.6582)" class="st0 st1 st2">ERRONEOUS GOLD </text>
<path class="st0" d="M1231.03,483.18l-1.28,8.47c-9.41,62.47-38.45,119.04-83.92,163.6c-54.65,53.56-126.76,83.05-203.03,83.05  c-159.87,0-290.06-130.07-290.2-289.94l0.06-3.3c0.22-10.59,1.03-21.24,2.4-31.66c5.36-45.03,21.42-88.75,46.44-126.34  c7.93-11.92,16.87-23.41,26.6-34.13c0.69-0.78,1.43-1.56,2.15-2.34c1.47-1.58,2.95-3.14,4.42-4.65c0.8-0.82,1.61-1.66,2.43-2.48  c0.71-0.72,1.4-1.41,2.12-2.12c1.83-1.8,3.84-3.73,5.97-5.72l3.31-3.05l6.94-6.28l4.48,8.22c10.41,19.09,23.72,36.34,39.51,51.29  c38.64,36.53,89.56,56.65,143.37,56.65c32.45,0,63.53-7.25,92.35-21.57c16.03-7.92,30.93-17.85,44.41-29.55  c-37.65-33.54-85.91-51.93-136.74-51.93c-25.57,0-50.23-9.25-69.42-26.04c-10-8.71-18.19-19.16-24.36-31.07l-3.99-7.7l8.25-2.7  c28.71-9.32,58.83-14.05,89.53-14.05c3.86,0,7.72,0.07,11.5,0.22c0.85,0.03,1.75,0.09,2.65,0.13l0.5,0.01l1.72,0.1  c0.81,0.04,1.61,0.07,2.42,0.13h0.07l0.4,0.03l0.34,0.01c23.83,1.56,47.34,6.08,69.91,13.4l7.95,2.59l-0.09,0.21  c35.77,12.83,68.22,32.44,96.53,58.38c17.72,16.2,33.41,34.63,46.65,54.75l2.7,4.11l-2.75,4.07  c-13.49,19.95-29.43,38.18-47.37,54.19c-12.06,10.8-25.12,20.65-38.77,29.25c-46.21,29.15-99.59,44.56-154.38,44.56  c-68.79,0-134.87-24.22-187.11-68.36c-14.11,28.55-21.54,60.31-21.54,92.42c0,6.29,0.27,12.49,0.8,18.44  c9.53,106.66,100.83,190.23,207.85,190.23c69.23,0,134.36-34.94,172.98-92.02H935.44v-81.55H1231.03z"/>
</svg>